
<svg xmlns="http://www.w3.org/2000/svg" version="1.1" xmlns:xlink="http://www.w3.org/1999/xlink" preserveAspectRatio="none" x="0px" y="0px" width="41px" height="41px" viewBox="0 0 41 41">
<defs>
<g id="Layer0_0_FILL">
<path fill="#FFFFFF" fill-opacity="0.8392156862745098" stroke="none" d="
M 41.2 41.1
L 41.2 0.1 0.2 0.1 0.2 41.1 41.2 41.1
M 25.6 12
Q 23.8 10.4 20.9 10.4 17.5 10.4 15.4 12.5 13.4 14.5 13.4 17.4 13.4 19.2 14.4 20.3 14.7 20.7 14.6 21.2
L 14.3 22.3
Q 14.1 22.9 13.5 22.7 12 22.1 11.2 20.5 10.4 19.1 10.4 17.1 10.4 13.6 13.1 10.9 16.2 7.9 21.3 7.9 25.5 7.9 28.3 10.4 30.9 12.9 30.9 16.3 30.9 20.7 28.6 23.5 26.3 26.4 22.7 26.4 21.5 26.4 20.4 25.9 19.4 25.3 19 24.6
L 17.9 28.6
Q 17.2 30.9 15.1 33.4 15.1 33.5 14.9 33.5 14.8 33.5 14.8 33.3 14.3 30.1 14.8 27.7
L 16.8 19.7
Q 16.3 18.8 16.3 17.4 16.3 15.8 17.2 14.7 18 13.6 19.2 13.6 20.2 13.6 20.8 14.2 21.3 14.8 21.3 15.8 21.3 16.6 20.8 18.2 20.1 20.5 20 21 19.7 22.2 20.4 23 21.2 23.8 22.4 23.8 24.5 23.8 25.9 21.5 27.2 19.3 27.2 16 27.2 13.6 25.6 12
M 894.2 5239.85
L 873.7 5239.85 873.7 5260.35 894.2 5260.35 894.2 5239.85
M 881.6 5245.85
Q 882.6 5245.85 883.2 5246.45 883.85 5247 883.85 5248.1 883.85 5249.05 883.25 5249.45 882.95 5249.65 882.65 5249.7 883.65 5249.7 884 5250.75 884.15 5251.25 884.1 5251.75 884.1 5253.35 882.85 5254.05 882.25 5254.4 881.6 5254.4
L 877.55 5254.4 877.55 5245.85 881.6 5245.85
M 885.8 5246.35
L 889.05 5246.35 889.05 5247.15 885.8 5247.15 885.8 5246.35
M 886.15 5251.65
Q 886.15 5252.6 886.85 5252.95 887.2 5253.1 887.55 5253.1 888.35 5253.1 888.65 5252.65 888.85 5252.45 888.8 5252.2
L 890.2 5252.2
Q 890.2 5253.7 888.85 5254.2
L 887.5 5254.4
Q 885.45 5254.4 884.75 5252.8
L 884.45 5251.2
Q 884.45 5250.4 884.8 5249.6 885.6 5248 887.5 5248 889.5 5248 890.1 5249.8 890.4 5250.75 890.25 5251.65
L 886.15 5251.65
M 887.5 5249.2
Q 886.75 5249.2 886.35 5249.9 886.15 5250.2 886.15 5250.55
L 888.75 5250.55
Q 888.75 5250.2 888.6 5249.9 888.3 5249.2 887.5 5249.2
M 881.5 5252.75
Q 882.45 5252.75 882.45 5251.65 882.45 5250.95 882.05 5250.65
L 881.6 5250.55 879.3 5250.55 879.3 5252.75 881.5 5252.75
M 881.45 5249.2
Q 881.8 5249.2 881.95 5249.05 882.15 5248.8 882.15 5248.25 882.15 5247.7 881.9 5247.45
L 881.6 5247.35 879.3 5247.35 879.3 5249.2 881.45 5249.2
M 860.25 5239.85
L 839.75 5239.85 839.75 5260.35 860.25 5260.35 860.25 5239.85
M 846.2 5245.25
Q 847.75 5243.75 850.3 5243.75 852.4 5243.75 853.8 5245 855.1 5246.25 855.1 5247.95 855.1 5250.15 853.95 5251.55 852.8 5253 851 5253 850.4 5253 849.85 5252.75 849.35 5252.45 849.15 5252.1
L 848.6 5254.1
Q 848.25 5255.25 847.2 5256.5 847.2 5256.55 847.1 5256.55 847.05 5256.55 847.05 5256.45 846.8 5254.85 847.05 5253.65
L 848.05 5249.65
Q 847.8 5249.2 847.8 5248.5 847.8 5247.7 848.25 5247.15 848.65 5246.6 849.25 5246.6 849.75 5246.6 850.05 5246.9 850.3 5247.2 850.3 5247.7 850.3 5248.1 850.05 5248.9 849.7 5250.05 849.65 5250.3 849.5 5250.9 849.85 5251.3 850.25 5251.7 850.85 5251.7 851.9 5251.7 852.6 5250.55 853.25 5249.45 853.25 5247.8 853.25 5246.6 852.45 5245.8 851.55 5245 850.1 5245 848.4 5245 847.35 5246.05 846.35 5247.05 846.35 5248.5 846.35 5249.4 846.85 5249.95 847 5250.15 846.95 5250.4
L 846.8 5250.95
Q 846.7 5251.25 846.4 5251.15 845.65 5250.85 845.25 5250.05 844.85 5249.35 844.85 5248.35 844.85 5246.6 846.2 5245.25 Z"/>
</g>
</defs>

<g transform="matrix( 1, 0, 0, 1, 0,0) ">
<use xlink:href="#Layer0_0_FILL"/>
</g>
</svg>
