
<svg xmlns="http://www.w3.org/2000/svg" version="1.1" xmlns:xlink="http://www.w3.org/1999/xlink" preserveAspectRatio="none" x="0px" y="0px" width="41px" height="41px" viewBox="0 0 41 41">
<defs>
<g id="Layer0_0_FILL">
<path fill="#FFFFFF" fill-opacity="0.8392156862745098" stroke="none" d="
M 41 41
L 41 0 0 0 0 41 41 41
M 24.2 14.6
L 24.2 13 30.7 13 30.7 14.6 24.2 14.6
M 20.6 21.8
Q 20.9 22.8 20.8 23.8 20.8 27 18.3 28.4 17.1 29.1 15.8 29.1
L 7.7 29.1 7.7 12 15.8 12
Q 17.8 12 19 13.2 20.3 14.3 20.3 16.5 20.3 18.4 19.1 19.2 18.5 19.6 17.9 19.7 19.9 19.7 20.6 21.8
M 21.5 22.7
Q 21.5 21.1 22.2 19.5 23.8 16.3 27.6 16.3 31.6 16.3 32.8 19.9 33.4 21.8 33.1 23.6
L 24.9 23.6
Q 24.9 25.5 26.3 26.2 27 26.5 27.7 26.5 29.3 26.5 29.9 25.6 30.3 25.2 30.2 24.7
L 33 24.7
Q 33 27.7 30.3 28.7
L 27.6 29.1
Q 23.5 29.1 22.1 25.9
L 21.5 22.7
M 25.3 20.1
Q 24.9 20.7 24.9 21.4
L 30.1 21.4
Q 30.1 20.7 29.8 20.1 29.2 18.7 27.6 18.7 26.1 18.7 25.3 20.1
M 16.7 21.6
L 15.8 21.4 11.2 21.4 11.2 25.8 15.6 25.8
Q 17.5 25.8 17.5 23.6 17.5 22.2 16.7 21.6
M 16.9 16.8
Q 16.9 15.7 16.4 15.2
L 15.8 15 11.2 15 11.2 18.7 15.5 18.7
Q 16.2 18.7 16.5 18.4 16.9 17.9 16.9 16.8
M 894.2 5239.85
L 873.7 5239.85 873.7 5260.35 894.2 5260.35 894.2 5239.85
M 881.6 5245.85
Q 882.6 5245.85 883.2 5246.45 883.85 5247 883.85 5248.1 883.85 5249.05 883.25 5249.45 882.95 5249.65 882.65 5249.7 883.65 5249.7 884 5250.75 884.15 5251.25 884.1 5251.75 884.1 5253.35 882.85 5254.05 882.25 5254.4 881.6 5254.4
L 877.55 5254.4 877.55 5245.85 881.6 5245.85
M 885.8 5246.35
L 889.05 5246.35 889.05 5247.15 885.8 5247.15 885.8 5246.35
M 886.85 5252.95
Q 887.2 5253.1 887.55 5253.1 888.35 5253.1 888.65 5252.65 888.85 5252.45 888.8 5252.2
L 890.2 5252.2
Q 890.2 5253.7 888.85 5254.2
L 887.5 5254.4
Q 885.45 5254.4 884.75 5252.8
L 884.45 5251.2
Q 884.45 5250.4 884.8 5249.6 885.6 5248 887.5 5248 889.5 5248 890.1 5249.8 890.4 5250.75 890.25 5251.65
L 886.15 5251.65
Q 886.15 5252.6 886.85 5252.95
M 887.5 5249.2
Q 886.75 5249.2 886.35 5249.9 886.15 5250.2 886.15 5250.55
L 888.75 5250.55
Q 888.75 5250.2 888.6 5249.9 888.3 5249.2 887.5 5249.2
M 881.5 5252.75
Q 882.45 5252.75 882.45 5251.65 882.45 5250.95 882.05 5250.65
L 881.6 5250.55 879.3 5250.55 879.3 5252.75 881.5 5252.75
M 881.45 5249.2
Q 881.8 5249.2 881.95 5249.05 882.15 5248.8 882.15 5248.25 882.15 5247.7 881.9 5247.45
L 881.6 5247.35 879.3 5247.35 879.3 5249.2 881.45 5249.2
M 860.25 5239.85
L 839.75 5239.85 839.75 5260.35 860.25 5260.35 860.25 5239.85
M 846.2 5245.25
Q 847.75 5243.75 850.3 5243.75 852.4 5243.75 853.8 5245 855.1 5246.25 855.1 5247.95 855.1 5250.15 853.95 5251.55 852.8 5253 851 5253 850.4 5253 849.85 5252.75 849.35 5252.45 849.15 5252.1
L 848.6 5254.1
Q 848.25 5255.25 847.2 5256.5 847.2 5256.55 847.1 5256.55 847.05 5256.55 847.05 5256.45 846.8 5254.85 847.05 5253.65
L 848.05 5249.65
Q 847.8 5249.2 847.8 5248.5 847.8 5247.7 848.25 5247.15 848.65 5246.6 849.25 5246.6 849.75 5246.6 850.05 5246.9 850.3 5247.2 850.3 5247.7 850.3 5248.1 850.05 5248.9 849.7 5250.05 849.65 5250.3 849.5 5250.9 849.85 5251.3 850.25 5251.7 850.85 5251.7 851.9 5251.7 852.6 5250.55 853.25 5249.45 853.25 5247.8 853.25 5246.6 852.45 5245.8 851.55 5245 850.1 5245 848.4 5245 847.35 5246.05 846.35 5247.05 846.35 5248.5 846.35 5249.4 846.85 5249.95 847 5250.15 846.95 5250.4
L 846.8 5250.95
Q 846.7 5251.25 846.4 5251.15 845.65 5250.85 845.25 5250.05 844.85 5249.35 844.85 5248.35 844.85 5246.6 846.2 5245.25 Z"/>
</g>
</defs>

<g transform="matrix( 1, 0, 0, 1, 0,0) ">
<use xlink:href="#Layer0_0_FILL"/>
</g>
</svg>
