
<svg xmlns="http://www.w3.org/2000/svg" version="1.1" xmlns:xlink="http://www.w3.org/1999/xlink" preserveAspectRatio="none" x="0px" y="0px" width="40px" height="40px" viewBox="0 0 40 40">
<defs>
<path id="Layer0_0_1_STROKES" stroke="#FFFFFF" stroke-width="1" stroke-linejoin="round" stroke-linecap="round" fill="none" d="
M 2.29637069702153 9.819699859619504
Q 2.6147148132324673 9.103425598144895 3.171817016601608 8.546323394775754 4.445193481445358 7.352532958984739 6.11650009155278 7.352532958984739
L 34.05119628906243 7.352532958984739
Q 35.72250289916997 7.352532958984739 36.99587936401372 8.546323394775754 37.55298156738286 9.103425598144895 37.87132568359391 9.819699859619504 38.18966979980473 10.615560150146848 38.18966979980473 11.491006469726926
L 38.18966979980473 28.602002716064817
Q 38.18966979980473 29.477449035644895 37.87132568359391 30.27330932617224 37.55298156738286 30.909997558594114 36.99587936401372 31.54668579101599 35.72250289916997 32.740476226807004 34.05119628906243 32.740476226807004
L 6.11650009155278 32.740476226807004
Q 4.445193481445358 32.740476226807004 3.171817016601608 31.54668579101599 2.6147148132324673 30.909997558594114 2.29637069702153 30.27330932617224 1.9780265808105923 29.477449035644895 1.9780265808105923 28.602002716064817
L 1.9780265808105923 11.491006469726926
Q 1.9780265808105923 10.615560150146848 2.29637069702153 9.819699859619504 Z
M 2.29637069702153 9.819699859619504
L 12.562968444824264 20.006711578369504 18.69109268188481 26.13483581543005
Q 20.12364120483403 27.646970367432004 21.55618972778325 26.13483581543005
L 27.684313964843682 20.006711578369504 37.87132568359391 9.819699859619504
M 27.684313964843682 20.006711578369504
L 37.87132568359391 30.27330932617224
M 2.29637069702153 30.27330932617224
L 12.562968444824264 20.006711578369504"/>
</defs>

<g transform="matrix( 1.5917205810546875, 0, 0, 1.5917205810546875, -788.55,-8333.9) ">
<use xlink:href="#Layer0_0_1_STROKES" transform="matrix( 0.6282501220703125, 0, 0, 0.6282501220703125, 495.4,5235.75) "/>
</g>
</svg>
