
<svg xmlns="http://www.w3.org/2000/svg" version="1.1" xmlns:xlink="http://www.w3.org/1999/xlink" preserveAspectRatio="none" x="0px" y="0px" width="41px" height="41px" viewBox="0 0 41 41">
<defs>
<g id="Layer0_0_FILL">
<path fill="#FFFFFF" fill-opacity="0.8392156862745098" stroke="none" d="
M 41.2 41.1
L 41.2 0.1 0.2 0.1 0.2 41.1 41.2 41.1
M 22 18.7
L 22.1 18.7
Q 23.4 16.4 27.2 16.4 30.9 16.4 32.4 18.5 33.5 20.2 33.5 24.1
L 33.5 33.5 28.4 33.5 28.4 25.2
Q 28.4 23.2 28 22.2 27.3 20.6 25.5 20.6 23.6 20.6 22.8 22 22.3 23 22.3 25
L 22.3 33.5 17.3 33.5 17.3 16.4 22 16.4 22 18.7
M 10.9 7.9
Q 12.1 7.9 13 8.8 13.9 9.6 13.9 10.9 13.9 12.1 13 13 12.1 13.9 10.9 13.9 9.7 13.9 8.8 13 7.9 12.1 7.9 10.9 7.9 9.6 8.8 8.8 9.7 7.9 10.9 7.9
M 7.9 16.4
L 13.9 16.4 13.9 33.5 7.9 33.5 7.9 16.4
M 826.35 5260.35
L 826.35 5239.85 805.85 5239.85 805.85 5260.35 826.35 5260.35
M 810.15 5244.2
Q 810.6 5243.75 811.2 5243.75 811.8 5243.75 812.25 5244.2 812.7 5244.6 812.7 5245.25 812.7 5245.85 812.25 5246.3 811.8 5246.75 811.2 5246.75 810.6 5246.75 810.15 5246.3 809.7 5245.85 809.7 5245.25 809.7 5244.6 810.15 5244.2
M 822.5 5251.85
L 822.5 5256.55 819.95 5256.55 819.95 5252.4
Q 819.95 5251.4 819.75 5250.9 819.4 5250.1 818.5 5250.1 817.55 5250.1 817.15 5250.8 816.9 5251.3 816.9 5252.3
L 816.9 5256.55 814.4 5256.55 814.4 5248 816.75 5248 816.75 5249.15 816.8 5249.15
Q 817.45 5248 819.35 5248 821.2 5248 821.95 5249.05 822.5 5249.9 822.5 5251.85
M 812.7 5248
L 812.7 5256.55 809.7 5256.55 809.7 5248 812.7 5248
M 894.2 5239.85
L 873.7 5239.85 873.7 5260.35 894.2 5260.35 894.2 5239.85
M 881.6 5245.85
Q 882.6 5245.85 883.2 5246.45 883.85 5247 883.85 5248.1 883.85 5249.05 883.25 5249.45 882.95 5249.65 882.65 5249.7 883.65 5249.7 884 5250.75 884.15 5251.25 884.1 5251.75 884.1 5253.35 882.85 5254.05 882.25 5254.4 881.6 5254.4
L 877.55 5254.4 877.55 5245.85 881.6 5245.85
M 885.8 5246.35
L 889.05 5246.35 889.05 5247.15 885.8 5247.15 885.8 5246.35
M 886.15 5251.65
Q 886.15 5252.6 886.85 5252.95 887.2 5253.1 887.55 5253.1 888.35 5253.1 888.65 5252.65 888.85 5252.45 888.8 5252.2
L 890.2 5252.2
Q 890.2 5253.7 888.85 5254.2
L 887.5 5254.4
Q 885.45 5254.4 884.75 5252.8
L 884.45 5251.2
Q 884.45 5250.4 884.8 5249.6 885.6 5248 887.5 5248 889.5 5248 890.1 5249.8 890.4 5250.75 890.25 5251.65
L 886.15 5251.65
M 887.5 5249.2
Q 886.75 5249.2 886.35 5249.9 886.15 5250.2 886.15 5250.55
L 888.75 5250.55
Q 888.75 5250.2 888.6 5249.9 888.3 5249.2 887.5 5249.2
M 881.5 5252.75
Q 882.45 5252.75 882.45 5251.65 882.45 5250.95 882.05 5250.65
L 881.6 5250.55 879.3 5250.55 879.3 5252.75 881.5 5252.75
M 881.45 5249.2
Q 881.8 5249.2 881.95 5249.05 882.15 5248.8 882.15 5248.25 882.15 5247.7 881.9 5247.45
L 881.6 5247.35 879.3 5247.35 879.3 5249.2 881.45 5249.2
M 860.25 5239.85
L 839.75 5239.85 839.75 5260.35 860.25 5260.35 860.25 5239.85
M 846.2 5245.25
Q 847.75 5243.75 850.3 5243.75 852.4 5243.75 853.8 5245 855.1 5246.25 855.1 5247.95 855.1 5250.15 853.95 5251.55 852.8 5253 851 5253 850.4 5253 849.85 5252.75 849.35 5252.45 849.15 5252.1
L 848.6 5254.1
Q 848.25 5255.25 847.2 5256.5 847.2 5256.55 847.1 5256.55 847.05 5256.55 847.05 5256.45 846.8 5254.85 847.05 5253.65
L 848.05 5249.65
Q 847.8 5249.2 847.8 5248.5 847.8 5247.7 848.25 5247.15 848.65 5246.6 849.25 5246.6 849.75 5246.6 850.05 5246.9 850.3 5247.2 850.3 5247.7 850.3 5248.1 850.05 5248.9 849.7 5250.05 849.65 5250.3 849.5 5250.9 849.85 5251.3 850.25 5251.7 850.85 5251.7 851.9 5251.7 852.6 5250.55 853.25 5249.45 853.25 5247.8 853.25 5246.6 852.45 5245.8 851.55 5245 850.1 5245 848.4 5245 847.35 5246.05 846.35 5247.05 846.35 5248.5 846.35 5249.4 846.85 5249.95 847 5250.15 846.95 5250.4
L 846.8 5250.95
Q 846.7 5251.25 846.4 5251.15 845.65 5250.85 845.25 5250.05 844.85 5249.35 844.85 5248.35 844.85 5246.6 846.2 5245.25 Z"/>
</g>
</defs>

<g transform="matrix( 1, 0, 0, 1, 0,0) ">
<use xlink:href="#Layer0_0_FILL"/>
</g>
</svg>
